<?xml version="1.0" standalone="no"?>
<!DOCTYPE svg PUBLIC "-//W3C//DTD SVG 20010904//EN"
 "http://www.w3.org/TR/2001/REC-SVG-20010904/DTD/svg10.dtd">
<svg version="1.0" xmlns="http://www.w3.org/2000/svg"
 width="80" height="80" viewBox="0 0 1024.000000 1024.000000"
 preserveAspectRatio="xMidYMid meet" style="background: transparent;">

<g transform="translate(0.000000,1024.000000) scale(0.100000,-0.100000)"
fill="#000000" stroke="none">
<!-- Убран фоновый прямоугольник для прозрачности -->
<!-- <path d="M0 5120 l0 -5120 5120 0 5120 0 0 5120 0 5120 -5120 0 -5120 0 0 -5120z"/> -->
m6810 3768 c18 -13 42 -39 52 -58 37 -67 27 -85 -167 -326 -318 -394
-1000 -1213 -1236 -1486 -28 -32 -61 -61 -75 -64 -55 -14 -124 42 -124 101 0
27 20 57 103 161 57 71 179 228 272 349 493 642 1018 1312 1044 1332 26 20 94
15 131 -9z m742 -654 c42 -31 61 -66 66 -117 l5 -49 -74 -72 c-107 -102 -316
-288 -529 -471 -198 -169 -409 -355 -874 -768 -160 -143 -301 -264 -314 -270
-52 -24 -133 56 -118 117 3 12 96 107 208 211 111 105 302 287 423 406 121
118 391 375 600 571 209 196 396 372 415 393 72 77 134 93 192 49z m-2277
-829 c49 -9 91 -18 94 -21 3 -2 -9 -19 -25 -37 -36 -38 -152 -181 -177 -217
-9 -13 -17 -43 -17 -65 l0 -40 -122 4 c-140 4 -205 -8 -293 -51 -253 -127
-422 -359 -454 -625 -19 -154 19 -323 105 -466 54 -88 174 -203 264 -254 225
-126 491 -142 692 -43 85 42 145 86 220 162 158 158 249 368 236 548 -5 60 -3
70 11 70 38 1 104 45 221 148 l125 110 13 -36 c52 -150 53 -408 2 -606 -86
-334 -288 -585 -595 -739 -176 -88 -318 -120 -530 -120 -156 0 -227 11 -360
54 -338 108 -588 348 -724 691 -47 120 -71 255 -71 406 0 248 68 464 207 661
58 81 179 208 256 268 124 96 319 179 477 202 41 6 86 13 100 15 47 9 255 -3
345 -19z m558 -258 c31 -28 74 -71 94 -95 l37 -46 -159 -153 -160 -153 -87 87
c-75 75 -86 89 -74 103 7 8 70 84 140 167 78 92 133 150 140 146 6 -4 37 -29
69 -56z m-705 -232 c140 -28 341 -164 437 -296 75 -101 125 -237 125 -340 0
-67 -35 -194 -75 -274 -120 -239 -362 -387 -610 -372 -299 18 -548 223 -610
503 -22 98 -16 240 15 334 82 249 343 464 543 447 34 -3 72 -8 85 -12 17 -6
22 -3 22 10 0 11 6 15 18 11 9 -2 32 -8 50 -11z m-1727 -86 c-11 -30 -20 -49
-20 -43 -1 15 30 106 35 101 2 -2 -5 -28 -15 -58z m-31 -96 c-11 -17 -11 -17
-6 0 3 10 6 24 7 30 0 9 2 9 5 0 3 -7 0 -20 -6 -30z m3377 -125 c-3 -8 -6 -5
-6 6 -1 11 2 17 5 13 3 -3 4 -12 1 -19z m10 -65 c-3 -10 -5 -2 -5 17 0 19 2
27 5 18 2 -10 2 -26 0 -35z m-3425 -477 c2 -19 0 -32 -4 -30 -8 5 -12 64 -4
64 2 0 6 -15 8 -34z m3425 -68 c-3 -7 -5 -2 -5 12 0 14 2 19 5 13 2 -7 2 -19
0 -25z m-10 -50 c-3 -7 -5 -2 -5 12 0 14 2 19 5 13 2 -7 2 -19 0 -25z m-10
-40 c-3 -8 -6 -5 -6 6 -1 11 2 17 5 13 3 -3 4 -12 1 -19z m-2732 -970 c24 -17
43 -34 41 -36 -3 -2 -26 12 -52 32 -58 45 -51 47 11 4z m1062 -354 c-3 -3 -12
-4 -19 -1 -8 3 -5 6 6 6 11 1 17 -2 13 -5z m321 -449 c235 -56 395 -254 409
-505 14 -253 -119 -465 -345 -550 -79 -31 -252 -39 -339 -17 -249 64 -406 272
-407 537 0 270 173 488 429 540 66 13 186 11 253 -5z m1198 4 c86 -15 191 -70
252 -132 l52 -52 -90 -68 c-49 -37 -92 -67 -95 -67 -3 0 -19 15 -36 34 -48 55
-111 80 -199 81 -124 0 -222 -61 -277 -173 -25 -52 -28 -67 -28 -167 0 -100 2
-115 28 -167 57 -117 157 -173 295 -167 126 6 224 73 239 162 l6 37 -137 0
-136 0 0 95 0 95 241 0 241 0 -3 -152 c-4 -143 -6 -157 -32 -210 -16 -33 -50
-77 -81 -105 -103 -94 -209 -133 -361 -133 -163 0 -267 41 -375 150 -112 111
-160 233 -160 405 0 161 49 284 155 390 128 128 305 179 501 144z m1145 -3
c237 -51 402 -251 416 -506 9 -175 -40 -305 -161 -426 -109 -109 -221 -154
-384 -154 -89 0 -173 19 -252 57 -68 33 -185 148 -223 220 -37 70 -67 192 -67
273 0 81 30 204 67 273 40 74 146 178 221 216 116 59 249 75 383 47z m-5037
-326 c77 -176 141 -318 143 -316 2 1 65 144 141 317 l138 314 147 3 147 3 -2
-533 -3 -533 -108 0 -107 0 -1 353 c0 195 -3 351 -7 347 -4 -4 -66 -138 -137
-298 l-131 -292 -80 -3 -81 -3 -107 241 c-59 132 -119 266 -134 298 l-27 57
-3 -352 -2 -353 -105 0 -105 0 0 535 0 535 143 0 142 0 139 -320z m1210 232
c32 -48 140 -205 240 -349 l181 -263 3 350 2 350 110 0 110 0 0 -535 0 -535
-113 0 -113 0 -131 193 c-73 105 -182 264 -242 351 l-111 160 0 -352 0 -352
-115 0 -115 0 0 535 0 535 118 0 117 -1 59 -87z m566 -1328 c92 -27 166 -73
234 -144 103 -109 146 -223 146 -385 0 -162 -50 -288 -154 -390 -75 -73 -139
-109 -242 -135 -197 -51 -399 2 -534 139 -257 261 -187 723 133 881 123 60
284 74 417 34z m2795 -323 l-196 -320 1 -203 2 -203 -111 -3 -111 -3 0 205 0
206 -194 317 -195 318 122 3 c66 1 126 1 132 -1 6 -3 62 -93 125 -201 63 -107
117 -195 120 -196 3 0 57 90 120 200 l115 199 130 3 c72 2 131 2 133 2 2 -1
-85 -146 -193 -323z m-3823 281 c128 -63 194 -173 186 -312 -7 -115 -71 -216
-176 -276 -19 -11 -30 -24 -27 -32 3 -8 57 -96 120 -196 63 -101 115 -186 115
-190 0 -3 -57 -6 -127 -6 l-128 1 -114 189 -115 190 -68 0 -68 0 0 -190 0
-190 -115 0 -115 0 0 526 0 525 283 -3 283 -3 66 -33z m1798 -382 l0 -420 240
0 240 0 0 -105 0 -105 -350 0 -350 0 0 525 0 525 110 0 110 0 0 -420z m852 0
l-2 -420 240 0 240 0 0 -105 0 -105 -352 0 -353 0 0 525 0 525 115 0 115 0 -3
-420z"/>
<path d="M5073 6903 c4 -3 24 -8 45 -9 31 -2 33 -1 12 6 -31 10 -66 12 -57 3z"/>
<path d="M5047 6853 c-7 -48 -18 -193 -12 -173 2 8 7 36 10 63 4 31 11 47 20
47 9 0 12 6 8 16 -5 13 -8 13 -15 2 -7 -9 -8 -5 -4 12 3 14 6 33 6 43 0 11 4
15 12 11 7 -4 8 -3 4 4 -13 22 -23 12 -29 -25z"/>
<path d="M5127 6869 c7 -7 15 -10 18 -7 3 3 -2 9 -12 12 -14 6 -15 5 -6 -5z"/>
<path d="M5183 6855 c-6 -14 -7 -23 -2 -19 13 8 31 44 22 44 -4 0 -13 -11 -20
-25z"/>
<path d="M5101 6857 c-1 -10 -5 -15 -11 -12 -6 4 -7 -1 -3 -11 6 -15 7 -15 15
0 5 9 7 22 4 29 -2 7 -5 4 -5 -6z"/>
<path d="M5214 6857 c-4 -7 -4 -9 1 -5 4 4 14 3 22 -3 7 -6 13 -8 13 -5 0 4 9
2 20 -4 20 -11 23 -29 5 -43 -5 -5 1 -5 15 -2 34 10 49 25 19 19 -13 -2 -18
-1 -11 2 10 5 9 10 -6 20 -36 25 -71 34 -78 21z"/>
<path d="M5145 6830 c3 -5 8 -10 11 -10 2 0 4 5 4 10 0 6 -5 10 -11 10 -5 0
-7 -4 -4 -10z"/>
<path d="M5215 6829 c-4 -5 -11 -6 -17 -3 -7 4 -8 2 -4 -5 6 -9 11 -9 21 -1
10 8 14 8 17 -2 3 -8 6 -9 11 -1 4 6 0 13 -8 17 -8 3 -17 1 -20 -5z"/>
<path d="M5120 6823 c5 -2 8 -9 5 -13 -3 -5 -1 -11 4 -14 5 -4 8 2 7 11 -2 9
-8 18 -15 19 -6 1 -7 0 -1 -3z"/>
<path d="M5153 6804 c9 -16 -8 -35 -26 -28 -9 3 -17 10 -17 15 0 5 -4 9 -10 9
-5 0 -7 -6 -4 -14 3 -9 -1 -13 -12 -13 -9 1 -19 -5 -21 -13 -3 -9 -1 -11 4 -5
14 18 39 13 50 -11 10 -21 9 -22 -13 -14 -27 11 -29 7 -13 -22 10 -18 8 -19
-13 -13 -18 5 -20 4 -8 -4 13 -9 12 -11 -5 -12 -11 0 -15 -3 -8 -5 7 -3 20 -1
29 4 9 5 25 7 35 5 14 -4 16 -10 9 -29 -5 -13 -7 -24 -5 -24 3 0 10 12 15 26
6 14 14 23 18 20 4 -2 9 4 9 15 1 10 -2 19 -8 19 -5 0 -9 -8 -9 -17 0 -10 -4
-14 -8 -8 -4 6 -13 10 -19 10 -7 0 -13 5 -12 10 0 6 6 9 14 7 18 -3 27 25 9
32 -8 3 -14 10 -14 15 0 14 34 7 42 -9 5 -12 7 -11 7 3 1 10 5 16 9 13 4 -2 9
5 9 16 2 20 1 20 -13 2 -14 -16 -15 -17 -10 -2 3 10 0 20 -6 24 -6 4 -8 3 -5
-2z"/>
<path d="M5234 6783 c3 -19 -4 -28 -34 -38 -34 -12 -40 -18 -29 -31 13 -16 32
-8 23 9 -5 9 -3 9 6 0 10 -10 11 -15 1 -27 -9 -11 -9 -16 0 -22 7 -4 9 -3 5 4
-3 6 -2 13 4 17 6 4 10 -5 10 -20 0 -14 4 -24 10 -20 5 3 6 13 3 23 -5 13 -4
15 8 6 8 -5 20 -9 27 -8 6 1 17 2 22 3 17 2 10 15 -23 41 -17 14 -28 20 -24
14 7 -12 -17 -27 -26 -17 -10 9 5 33 19 33 16 0 17 7 3 35 -9 19 -9 19 -5 -2z
m36 -86 c12 -17 12 -17 -14 -6 -18 9 -23 15 -14 20 7 4 13 7 13 6 0 -1 7 -10
15 -20z"/>
<path d="M5365 6780 c3 -5 8 -10 11 -10 2 0 4 5 4 10 0 6 -5 10 -11 10 -5 0
-7 -4 -4 -10z"/>
<path d="M5315 6770 c-3 -5 -1 -10 4 -10 6 0 11 5 11 10 0 6 -2 10 -4 10 -3 0
-8 -4 -11 -10z"/>
<path d="M5400 6756 c12 -16 12 -19 -2 -27 -8 -5 -14 -19 -13 -31 1 -13 3 -30
4 -37 1 -13 3 -13 14 -2 10 11 10 14 0 18 -7 3 -13 9 -13 15 0 6 7 7 16 4 14
-5 15 -4 5 7 -9 11 -8 17 2 25 10 9 22 3 49 -26 20 -20 34 -44 33 -53 -2 -12
3 -15 16 -12 17 5 24 -6 20 -30 -1 -5 3 -6 8 -3 8 5 42 -39 70 -89 5 -11 11
-15 11 -9 0 19 -69 115 -124 172 -53 56 -125 113 -96 78z"/>
<path d="M5323 6735 c0 -8 4 -12 9 -9 5 3 6 10 3 15 -9 13 -12 11 -12 -6z"/>
<path d="M5350 6705 c13 -15 6 -35 -13 -35 -9 0 -9 2 0 8 9 5 6 12 -10 21 -20
13 -21 13 -8 -2 12 -15 10 -18 -10 -27 -23 -10 -23 -10 -1 -6 18 3 22 0 22
-21 0 -20 4 -23 23 -19 12 3 16 3 10 0 -7 -3 -13 -13 -13 -21 0 -12 -3 -13
-13 -4 -14 11 -27 5 -27 -13 0 -6 5 -4 11 4 9 12 10 11 6 -7 -3 -12 0 -24 7
-27 6 -2 2 -4 -9 -3 -15 1 -21 9 -22 31 -1 16 -8 34 -14 40 -9 8 -11 7 -7 -4
8 -23 -37 -43 -53 -24 -9 11 -8 18 1 29 7 8 16 13 20 10 4 -3 13 2 20 10 24
28 -14 17 -48 -15 -35 -32 -47 -36 -57 -20 -3 6 -16 10 -27 10 -19 0 -18 -14
0 -16 20 -2 62 -25 62 -33 0 -8 37 -24 53 -22 4 1 7 -8 7 -19 0 -26 -17 -26
-25 0 -5 15 -12 19 -26 15 -12 -4 -19 -2 -19 7 0 10 -3 9 -9 -2 -6 -8 -7 -19
-3 -25 3 -5 -2 -4 -11 4 -15 12 -17 11 -17 -3 0 -19 21 -21 39 -3 10 10 12 8
9 -8 -2 -11 -10 -19 -17 -17 -7 1 -10 -2 -5 -9 5 -9 13 -5 26 10 10 13 15 28
11 34 -4 6 -1 7 6 3 7 -5 10 -14 7 -22 -5 -13 5 -18 31 -15 8 1 10 -5 7 -14
-5 -12 -9 -13 -20 -4 -8 7 -17 9 -20 6 -9 -9 6 -28 17 -22 5 4 9 1 9 -4 0 -6
-5 -11 -11 -11 -5 0 -8 -4 -4 -9 3 -6 -4 -15 -15 -21 -16 -9 -20 -8 -20 5 0
10 -10 15 -27 15 -27 1 -27 1 -9 15 11 8 15 15 9 15 -7 0 -19 7 -27 16 -15 14
-17 13 -22 -15 -4 -17 -10 -28 -15 -25 -5 3 -6 -1 -4 -8 9 -22 43 -40 51 -26
4 7 3 8 -4 4 -7 -4 -12 -1 -12 8 0 10 6 13 18 9 30 -12 71 -46 66 -55 -4 -5 3
-4 15 4 22 14 28 28 11 28 -5 0 -10 -5 -10 -11 0 -5 -4 -7 -10 -4 -14 9 12 33
30 28 12 -4 12 -3 2 5 -12 8 -11 14 2 40 8 16 14 38 12 49 -3 14 2 19 20 21
13 1 24 -3 24 -8 0 -5 -6 -7 -14 -4 -8 3 -17 1 -20 -4 -3 -5 6 -8 19 -6 14 1
25 -2 25 -8 0 -6 -9 -8 -20 -5 -11 3 -21 1 -21 -4 -3 -19 -5 -24 -11 -35 -5
-7 1 -10 17 -8 14 1 23 -2 19 -7 -3 -5 -11 -9 -18 -9 -14 0 -35 -58 -28 -78 2
-6 8 -12 14 -12 7 0 7 4 0 13 -11 13 0 51 17 62 6 3 20 8 32 10 15 3 19 0 15
-10 -3 -8 0 -17 7 -21 7 -4 9 -4 5 1 -11 11 11 47 24 39 6 -4 8 -3 4 4 -3 6
-2 13 4 17 6 4 8 11 5 16 -6 9 7 13 32 10 9 -1 9 4 0 23 -6 13 -15 22 -19 20
-4 -3 -16 0 -25 6 -17 11 -17 11 0 6 10 -3 15 -2 12 3 -3 5 -1 12 5 16 5 3 10
15 10 26 0 11 -4 17 -10 14 -5 -3 -10 -14 -10 -23 0 -11 -8 -18 -22 -19 -16
-2 -19 0 -9 6 7 5 10 14 6 20 -9 15 14 43 29 34 6 -3 7 -2 3 3 -5 5 -14 9 -20
9 -7 0 -12 14 -13 30 -2 48 -3 55 -15 55 -8 0 -8 -4 1 -15z m-140 -115 c0 -5
-2 -10 -4 -10 -3 0 -8 5 -11 10 -3 6 -1 10 4 10 6 0 11 -4 11 -10z m77 -6 c-3
-3 -12 -4 -19 -1 -8 3 -5 6 6 6 11 1 17 -2 13 -5z m-7 -23 c0 -6 -9 -9 -20 -8
-11 1 -20 5 -20 9 0 4 9 8 20 8 11 0 20 -4 20 -9z m74 -38 c-7 -28 -21 -43
-39 -43 -5 1 -2 5 8 11 12 7 16 17 11 31 -4 14 -2 18 5 14 6 -4 11 -2 11 3 0
6 2 11 5 11 3 0 2 -12 -1 -27z m56 -14 c0 -4 -6 -6 -14 -3 -8 3 -17 0 -22 -7
-4 -7 -3 -10 3 -6 5 3 10 0 10 -8 0 -8 -4 -12 -9 -9 -4 3 -8 -1 -8 -8 0 -8 -9
-14 -21 -15 -20 -2 -20 -1 -5 16 9 10 16 25 16 33 0 9 6 18 13 21 15 5 37 -3
37 -14z m-250 -42 c0 -2 -9 -12 -19 -21 -19 -17 -19 -17 -14 3 3 12 12 21 19
21 8 0 14 -2 14 -3z"/>
<path d="M5186 6659 c4 -8 -1 -9 -17 -4 -16 4 -20 3 -11 -3 8 -5 13 -12 13
-16 -3 -23 0 -26 19 -16 24 13 26 35 4 44 -9 4 -13 2 -8 -5z m14 -19 c0 -5 -8
-10 -17 -10 -15 0 -16 2 -3 10 19 12 20 12 20 0z"/>
<path d="M5031 6644 c0 -11 3 -14 6 -6 3 7 2 16 -1 19 -3 4 -6 -2 -5 -13z"/>
<path d="M5054 6635 c2 -16 4 -33 5 -37 0 -5 11 -8 24 -7 12 0 16 3 10 6 -7 2
-13 9 -13 15 0 6 7 8 15 4 8 -3 15 -1 15 4 0 6 -7 10 -16 10 -9 0 -23 8 -30
18 -11 15 -13 14 -10 -13z"/>
<path d="M5300 6641 c0 -6 4 -13 10 -16 6 -3 7 1 4 9 -7 18 -14 21 -14 7z"/>
<path d="M5415 6630 c2 -12 7 -25 9 -28 3 -2 0 -14 -6 -25 -8 -16 -7 -23 8
-34 10 -7 14 -13 10 -13 -5 0 -3 -6 3 -14 14 -17 4 -47 -14 -40 -19 7 -25 -42
-8 -66 11 -15 11 -20 2 -20 -7 0 -4 -6 6 -14 17 -12 18 -16 5 -32 -8 -11 -10
-15 -5 -11 5 4 15 -3 23 -15 7 -13 11 -15 8 -6 -6 19 18 43 33 33 7 -4 10 4 9
20 -2 22 -7 26 -25 22 -13 -2 -26 0 -29 4 -3 5 0 10 5 10 6 1 20 3 31 4 11 1
25 3 30 4 6 0 10 6 10 12 0 8 -5 8 -15 -1 -12 -10 -15 -10 -15 1 0 12 -2 12
-9 0 -5 -7 -11 -9 -14 -4 -4 6 5 20 18 31 14 12 25 18 25 13 0 -16 39 -19 51
-5 9 12 15 12 28 2 14 -11 14 -11 4 3 -10 12 -10 18 -1 27 7 7 8 12 2 12 -5 0
-15 -9 -21 -19 -8 -12 -20 -18 -33 -16 -30 6 -41 15 -33 28 4 6 8 20 8 30 2
15 -1 16 -12 5 -7 -8 -14 -26 -15 -41 -1 -16 -9 -34 -17 -40 -11 -10 -13 -8
-7 11 8 23 7 23 -12 6 -18 -15 -19 -19 -5 -32 12 -12 12 -16 1 -23 -8 -5 -15
-2 -20 9 -10 25 -9 54 1 48 5 -3 14 1 21 9 7 8 16 12 21 9 5 -3 9 5 9 18 0 17
-3 19 -9 9 -15 -23 -31 13 -35 82 -2 21 -8 43 -14 49 -9 9 -10 6 -7 -12z m50
-254 c7 3 16 1 20 -5 3 -6 -1 -11 -9 -11 -9 0 -16 -4 -16 -10 0 -5 -5 -10 -11
-10 -5 0 -7 5 -4 10 4 6 1 19 -6 28 -11 14 -11 15 0 5 7 -6 19 -9 26 -7z"/>
<path d="M5440 6635 c0 -7 30 -13 34 -7 3 4 -4 9 -15 9 -10 1 -19 0 -19 -2z"/>
<path d="M5110 6592 c0 -7 -43 -32 -55 -32 -2 0 -6 8 -8 18 -3 11 -5 7 -6 -10
-1 -36 14 -74 33 -81 10 -4 13 -1 9 8 -3 8 -9 12 -14 9 -5 -3 -9 0 -9 5 0 6 5
11 10 11 6 0 10 5 10 10 0 6 -8 10 -17 10 -15 0 -15 2 -4 9 24 15 42 2 30 -21
-9 -17 -8 -19 16 -16 14 2 24 8 23 13 -2 6 -5 9 -8 8 -3 -1 -7 9 -8 23 -1 13
2 24 8 24 15 0 21 -18 8 -23 -7 -3 -1 -6 13 -6 16 -1 29 6 33 15 5 14 4 15 -9
4 -14 -12 -19 -7 -16 13 1 5 -3 6 -9 2 -5 -3 -10 -1 -10 4 0 6 -4 11 -10 11
-5 0 -10 -4 -10 -8z"/>
<path d="M5463 6543 c0 -17 17 -16 40 1 16 13 15 14 -11 13 -16 -1 -29 -7 -29
-14z"/>
<path d="M5620 6489 c0 -4 7 -22 15 -40 8 -19 14 -27 14 -19 0 14 -28 72 -29
59z"/>
<path d="M5060 6465 c0 -8 4 -15 10 -15 5 0 7 7 4 15 -4 8 -8 15 -10 15 -2 0
-4 -7 -4 -15z"/>
<path d="M5195 6470 c-3 -5 0 -17 8 -25 13 -12 16 -12 20 0 7 17 -18 41 -28
25z"/>
<path d="M5070 6432 c0 -5 7 -9 15 -9 8 0 12 4 9 9 -3 4 -9 8 -15 8 -5 0 -9
-4 -9 -8z"/>
<path d="M5577 6413 c4 -10 2 -14 -5 -9 -21 13 -24 -16 -4 -37 l21 -20 -6 21
c-3 12 0 28 6 36 9 10 8 15 -3 19 -11 4 -13 1 -9 -10z"/>
<path d="M5307 6404 c4 -12 3 -15 -6 -10 -9 6 -10 0 -5 -21 9 -36 13 -41 23
-24 7 10 9 9 14 -3 8 -20 38 -9 35 13 -2 10 3 15 14 13 13 -2 16 2 12 13 -5
11 -10 13 -19 5 -6 -5 -15 -7 -18 -3 -4 3 -13 0 -22 -7 -9 -7 -18 -10 -22 -6
-3 3 -1 6 4 6 15 0 10 33 -5 38 -8 2 -10 -3 -5 -14z m50 -39 c0 -8 -4 -15 -9
-15 -10 0 -11 14 -1 23 9 10 10 9 10 -8z"/>
<path d="M5080 6408 c0 -17 23 -68 31 -68 5 0 2 15 -7 33 -18 34 -24 44 -24
35z"/>
<path d="M5174 6402 c5 -8 -1 -19 -15 -31 -17 -14 -19 -20 -9 -26 8 -5 11 -4
7 2 -8 12 20 26 34 17 16 -10 9 23 -8 37 -12 10 -15 10 -9 1z"/>
<path d="M5117 6380 c4 -16 8 -18 19 -9 8 6 14 14 14 17 0 3 -3 2 -7 -1 -3 -4
-12 -2 -19 4 -9 8 -11 5 -7 -11z"/>
<path d="M5596 6383 c-6 -14 -5 -15 5 -6 7 7 10 15 7 18 -3 3 -9 -2 -12 -12z"/>
<path d="M5648 6373 c6 -2 12 -16 12 -29 0 -13 4 -24 8 -24 5 0 7 14 4 30 -3
20 -10 30 -21 29 -10 0 -11 -2 -3 -6z"/>
<path d="M5514 6362 c4 -3 14 -7 22 -8 9 -1 13 0 10 4 -4 3 -14 7 -22 8 -9 1
-13 0 -10 -4z"/>
<path d="M5381 6344 c0 -11 3 -14 6 -6 3 7 2 16 -1 19 -3 4 -6 -2 -5 -13z"/>
<path d="M5210 6331 c0 -5 -3 -16 -6 -25 -3 -9 -2 -16 3 -16 5 0 10 11 11 25
1 14 0 25 -3 25 -3 0 -5 -4 -5 -9z"/>
<path d="M5233 6315 c0 -17 4 -24 12 -21 7 2 22 -2 34 -10 11 -8 21 -11 21 -7
0 5 8 9 18 10 15 1 18 -4 14 -25 -6 -33 -32 -74 -32 -52 0 13 -2 13 -10 0 -11
-17 -13 -10 -4 14 3 9 11 13 17 9 6 -3 7 -1 3 5 -4 7 -17 17 -29 22 -19 10
-20 9 -5 -3 15 -12 15 -14 -3 -25 -13 -8 -18 -21 -15 -41 2 -19 -2 -32 -11
-35 -23 -9 -28 -7 -15 6 15 15 15 28 1 28 -5 0 -8 -4 -4 -9 3 -5 1 -12 -5 -16
-10 -6 -14 7 -11 34 2 7 -2 10 -8 6 -7 -3 -8 0 -5 9 3 9 1 16 -5 16 -6 0 -11
8 -11 17 0 9 -3 14 -6 10 -4 -3 -13 0 -20 8 -17 17 -18 26 -2 23 7 -2 12 5 13
15 0 9 -4 16 -10 15 -5 -2 -9 -6 -7 -10 5 -16 -16 -7 -22 8 -4 9 -9 14 -12 11
-7 -7 47 -105 84 -154 13 -18 32 -33 41 -33 14 0 14 -2 1 -10 -11 -7 -11 -10
-2 -10 7 0 11 -4 8 -8 -10 -16 177 -172 269 -225 16 -8 38 30 23 39 -6 4 -8 3
-5 -3 16 -26 -25 -19 -65 10 -24 18 -56 41 -71 50 -32 21 -29 36 8 32 30 -4
30 -2 8 16 -14 12 -16 12 -8 0 6 -11 4 -13 -10 -7 -11 4 -21 2 -26 -5 -7 -13
-29 -4 -29 12 0 6 4 7 10 4 6 -3 7 1 3 10 -5 13 -7 14 -14 3 -7 -10 -16 -6
-38 18 -17 18 -27 35 -24 38 11 11 12 36 1 36 -6 0 -8 -7 -5 -15 4 -8 2 -17
-3 -20 -10 -6 -15 10 -10 30 1 6 2 20 2 33 0 12 4 22 9 22 5 0 9 -7 9 -16 0
-8 7 -22 15 -31 8 -8 12 -19 9 -25 -4 -7 -2 -8 4 -4 8 5 9 13 3 24 -4 9 -6 23
-3 31 3 9 0 11 -8 6 -8 -5 -5 3 6 18 l19 26 10 -23 c6 -13 17 -22 27 -20 11 1
15 -3 11 -14 -4 -15 -3 -15 6 -2 7 11 13 12 21 4 8 -8 5 -16 -12 -30 -30 -24
-38 -44 -26 -69 8 -18 8 -18 4 3 -2 12 0 22 6 22 5 0 6 5 3 10 -3 6 -1 10 5
10 6 0 10 -6 9 -12 -3 -29 2 -49 11 -43 6 4 17 3 23 -2 7 -4 6 -1 -3 7 -18 17
-32 70 -19 70 4 0 10 -6 13 -12 3 -7 3 -2 -1 12 -5 23 -5 24 12 10 11 -9 16
-10 11 -2 -4 6 -3 12 3 12 5 0 12 -4 16 -10 9 -15 34 0 28 17 -5 12 -3 14 6 8
10 -6 11 -3 2 13 -9 17 -8 22 8 27 11 3 22 13 26 22 5 16 4 16 -12 1 -13 -12
-23 -14 -34 -7 -12 6 -19 5 -23 -6 -3 -8 -13 -15 -23 -15 -15 0 -16 2 -3 11
13 9 12 12 -4 22 -11 7 -28 20 -38 30 -10 9 -18 12 -18 6 0 -6 -9 -1 -19 12
-21 26 -20 39 2 21 8 -7 17 -8 21 -4 4 4 14 -2 22 -12 8 -11 14 -16 14 -10 0
5 4 3 8 -4 13 -19 49 -23 63 -6 10 12 14 12 20 2 7 -11 9 -11 9 0 0 7 5 10 12
6 7 -4 8 -3 4 4 -4 7 -1 12 6 12 7 0 5 5 -6 12 -16 9 -22 7 -38 -14 -17 -25
-19 -25 -52 -10 -19 9 -32 20 -29 25 3 6 1 7 -4 4 -6 -4 -16 0 -23 8 -13 16
-39 10 -57 -13 -11 -14 -13 -13 -13 6 0 12 -4 22 -9 22 -6 0 -8 -9 -6 -20 5
-27 -11 -25 -39 5 l-23 25 0 -25z m137 -61 c0 5 9 1 20 -9 13 -11 18 -25 14
-37 -4 -14 0 -18 20 -18 14 0 28 5 31 10 13 21 23 9 18 -22 -6 -39 -13 -50
-13 -20 0 16 -6 22 -22 21 -21 0 -21 -1 -4 -8 18 -7 18 -8 2 -14 -10 -4 -19
-1 -22 8 -4 8 -12 15 -18 15 -8 0 -11 12 -9 33 3 26 2 29 -7 15 -16 -26 -40
-11 -40 25 0 29 1 30 15 11 8 -10 15 -15 15 -10z m0 -58 c-7 -7 -14 -6 -21 1
-9 9 -7 12 9 10 14 -1 18 -5 12 -11z"/>
<path d="M5556 6332 c-4 -7 -2 -12 4 -12 6 0 8 -4 5 -10 -9 -15 -15 -54 -7
-46 4 4 7 11 7 14 1 4 7 18 14 31 7 13 8 21 3 17 -6 -3 -12 -1 -14 6 -3 9 -6
9 -12 0z"/>
<path d="M5592 6299 c-8 -12 -9 -18 -4 -15 6 3 12 3 15 -1 2 -5 3 -3 1 3 -1 6
3 17 9 23 6 6 7 11 1 11 -5 0 -15 -9 -22 -21z"/>
<path d="M5671 6284 c0 -11 3 -14 6 -6 3 7 2 16 -1 19 -3 4 -6 -2 -5 -13z"/>
<path d="M5216 6251 c-11 -17 18 -30 33 -14 12 13 11 14 -9 8 -15 -5 -20 -4
-16 4 4 6 5 11 2 11 -3 0 -7 -4 -10 -9z"/>
<path d="M5650 6251 c-8 -6 -17 -8 -21 -5 -4 2 -4 -6 -1 -18 5 -19 7 -20 10
-5 5 26 20 20 25 -10 3 -23 4 -21 6 10 0 20 0 37 -1 37 -2 0 -10 -4 -18 -9z"/>
<path d="M5486 6238 c3 -5 10 -6 15 -3 13 9 11 12 -6 12 -8 0 -12 -4 -9 -9z"/>
<path d="M5581 6234 c0 -11 3 -14 6 -6 3 7 2 16 -1 19 -3 4 -6 -2 -5 -13z"/>
<path d="M5600 6241 c0 -6 4 -13 10 -16 6 -3 7 1 4 9 -7 18 -14 21 -14 7z"/>
<path d="M5540 6230 c0 -5 7 -7 15 -4 8 4 15 8 15 10 0 2 -7 4 -15 4 -8 0 -15
-4 -15 -10z"/>
<path d="M5570 6180 c0 -11 2 -20 4 -20 2 0 6 9 9 20 3 11 1 20 -4 20 -5 0 -9
-9 -9 -20z"/>
<path d="M5325 6161 c-6 -11 7 -61 17 -61 5 0 6 5 3 10 -3 6 0 13 8 16 19 7
11 41 -9 41 -8 0 -17 -3 -19 -6z m25 -21 c0 -5 -2 -10 -4 -10 -3 0 -8 5 -11
10 -3 6 -1 10 4 10 6 0 11 -4 11 -10z"/>
<path d="M5550 6163 c0 -6 8 -17 18 -24 16 -13 16 -13 2 6 -8 11 -16 22 -17
24 -2 2 -3 0 -3 -6z"/>
<path d="M5500 6139 c0 -4 5 -11 10 -14 6 -4 7 -11 4 -17 -4 -7 -10 -4 -16 6
-5 9 -14 14 -19 10 -14 -9 20 -44 36 -38 8 3 12 15 10 26 -3 14 0 18 10 14 8
-3 15 -2 15 3 0 5 -11 11 -25 13 -14 3 -25 2 -25 -3z"/>
<path d="M5636 6127 c3 -10 9 -15 12 -12 3 3 0 11 -7 18 -10 9 -11 8 -5 -6z"/>
<path d="M5436 6108 c3 -5 10 -6 15 -3 13 9 11 12 -6 12 -8 0 -12 -4 -9 -9z"/>
<path d="M5410 6089 c0 -5 5 -7 10 -4 6 3 10 8 10 11 0 2 -4 4 -10 4 -5 0 -10
-5 -10 -11z"/>
<path d="M5320 6079 c0 -5 5 -7 10 -4 6 3 10 8 10 11 0 2 -4 4 -10 4 -5 0 -10
-5 -10 -11z"/>
<path d="M5435 6080 c-3 -6 1 -7 9 -4 18 7 21 14 7 14 -6 0 -13 -4 -16 -10z"/>
<path d="M5474 6069 c0 -10 4 -19 8 -19 4 0 8 6 8 14 0 8 -4 17 -8 20 -4 2 -8
-4 -8 -15z"/>
<path d="M5520 6067 c0 -8 7 -14 15 -14 11 0 12 4 4 14 -6 7 -13 13 -15 13 -2
0 -4 -6 -4 -13z"/>
<path d="M5612 6045 c-17 -37 -14 -45 4 -12 9 16 14 31 11 33 -2 2 -9 -7 -15
-21z"/>
<path d="M5490 6038 c0 -16 29 -58 34 -50 3 5 -3 20 -14 32 -11 13 -20 21 -20
18z"/>
<path d="M5584 5988 c-4 -7 -14 -24 -22 -38 -14 -24 -13 -24 3 -5 20 24 37 55
31 55 -3 0 -8 -6 -12 -12z"/>
<path d="M5460 5975 c7 -9 15 -13 17 -11 7 7 -7 26 -19 26 -6 0 -6 -6 2 -15z"/>
<path d="M5530 5950 c-9 -6 -10 -10 -3 -10 6 0 15 5 18 10 8 12 4 12 -15 0z"/>
<path d="M5167 3926 c-99 -27 -184 -113 -213 -213 -26 -88 -16 -213 21 -281
59 -109 162 -172 281 -172 91 0 150 24 215 89 72 72 94 132 94 251 -1 72 -5
95 -29 147 -66 144 -223 220 -369 179z"/>
<path d="M7535 3931 c-95 -25 -190 -112 -221 -203 -28 -82 -25 -208 8 -278 33
-74 80 -125 142 -158 44 -23 63 -27 141 -27 74 0 97 4 132 23 99 52 155 133
174 251 24 154 -47 303 -176 367 -57 28 -147 39 -200 25z"/>
<path d="M4205 2507 c-92 -36 -152 -96 -186 -186 -30 -81 -24 -225 13 -296 31
-60 87 -114 148 -146 37 -19 61 -23 130 -23 103 0 158 23 220 91 68 73 85 121
85 238 0 89 -3 106 -28 157 -34 70 -110 140 -174 162 -54 18 -164 20 -208 3z"/>
<path d="M3040 2375 l0 -145 110 0 c125 0 162 11 203 59 36 43 39 133 5 176
-34 44 -75 55 -203 55 l-115 0 0 -145z"/>
</g>
</svg>
