<svg xmlns="http://www.w3.org/2000/svg" xmlns:xlink="http://www.w3.org/1999/xlink" aria-hidden="true" role="img" class="iconify iconify--logos" width="31.88" height="32" preserveAspectRatio="xMidYMid meet" viewBox="0 0 256 257"><defs><linearGradient id="IconifyId1813088fe1fbc01fb466" x1="-.828%" x2="57.636%" y1="7.652%" y2="78.411%"><stop offset="0%" stop-color="#41D1FF"></stop><stop offset="100%" stop-color="#BD34FE"></stop></linearGradient><linearGradient id="IconifyId1813088fe1fbc01fb467" x1="43.376%" x2="50.316%" y1="2.242%" y2="89.03%"><stop offset="0%" stop-color="#FFEA83"></stop><stop offset="8.333%" stop-color="#FFDD35"></stop><stop offset="100%" stop-color="#FFA800"></stop></linearGradient></defs><path fill="url(#IconifyId1813088fe1fbc01fb466)" d="M255.153 37.938L139.11 1.971c-6.135-1.982-12.666-.852-18.791 2.26L19.911 28.473A23.995 23.995 0 0 0 8.005 47.18v147.285c0 10.588 5.432 20.446 14.906 26.18l119.242 68.106c6.135 1.982 12.666.852 18.791-2.26l100.408-24.242A23.995 23.995 0 0 0 248.095 209.82V62.535c0-10.588-5.432-20.446-14.906-26.18z"></path><path fill="url(#IconifyId1813088fe1fbc01fb467)" d="M139.11 1.971a23.995 23.995 0 0 0-18.791 2.26L19.911 28.473A23.995 23.995 0 0 0 8.005 47.18v147.285c0 10.588 5.432 20.446 14.906 26.18l119.242 68.106c6.135 1.982 12.666.852 18.791-2.26l100.408-24.242A23.995 23.995 0 0 0 248.095 209.82V62.535c0-10.588-5.432-20.446-14.906-26.18z"></path></svg>

